<svg xmlns="http://www.w3.org/2000/svg" xmlns:xlink="http://www.w3.org/1999/xlink" width="500" zoomAndPan="magnify" viewBox="0 0 375 374.999991" height="500" preserveAspectRatio="xMidYMid meet" version="1.0"><defs><g/></defs><rect x="-37.5" width="450" fill="#ffffff" y="-37.499999" height="449.999989" fill-opacity="1"/><rect x="-37.5" width="450" fill="#f1efe7" y="-37.499999" height="449.999989" fill-opacity="1"/><g fill="#292828" fill-opacity="1"><g transform="translate(67.265625, 215.624986)"><g><path d="M 45.34375 -29.953125 C 48.5625 -29.953125 51.300781 -29.65625 53.5625 -29.0625 C 55.832031 -28.46875 56.96875 -27.160156 56.96875 -25.140625 C 56.96875 -24.296875 56.738281 -23.398438 56.28125 -22.453125 C 55.832031 -21.515625 55.398438 -20.695312 54.984375 -20 C 54.359375 -19.09375 53.882812 -17.273438 53.5625 -14.546875 C 53.25 -11.828125 52.988281 -9.003906 52.78125 -6.078125 C 52.71875 -4.535156 52.054688 -3.554688 50.796875 -3.140625 C 49.535156 -2.722656 48.207031 -2.671875 46.8125 -2.984375 C 45.414062 -3.296875 44.472656 -3.734375 43.984375 -4.296875 C 43.359375 -4.992188 42.519531 -5.445312 41.46875 -5.65625 C 40.425781 -5.863281 39.429688 -5.945312 38.484375 -5.90625 C 37.546875 -5.875 36.972656 -5.828125 36.765625 -5.765625 C 35.710938 -5.484375 34.519531 -5.21875 33.1875 -4.96875 C 31.863281 -4.726562 30.296875 -4.609375 28.484375 -4.609375 C 23.242188 -4.609375 18.476562 -5.796875 14.1875 -8.171875 C 9.894531 -10.546875 6.457031 -13.722656 3.875 -17.703125 C 1.289062 -21.679688 0 -26.078125 0 -30.890625 C 0 -34.523438 0.734375 -37.929688 2.203125 -41.109375 C 3.671875 -44.285156 5.710938 -47.078125 8.328125 -49.484375 C 10.941406 -51.890625 13.976562 -53.773438 17.4375 -55.140625 C 20.894531 -56.503906 24.578125 -57.1875 28.484375 -57.1875 C 33.367188 -57.1875 37.890625 -56.171875 42.046875 -54.140625 C 46.203125 -52.117188 49.535156 -49.363281 52.046875 -45.875 C 53.585938 -43.78125 54.179688 -41.859375 53.828125 -40.109375 C 53.484375 -38.367188 52.578125 -36.90625 51.109375 -35.71875 C 49.640625 -34.53125 47.910156 -33.707031 45.921875 -33.25 C 43.929688 -32.800781 42.007812 -32.816406 40.15625 -33.296875 C 38.3125 -33.785156 36.828125 -34.816406 35.703125 -36.390625 C 34.585938 -37.960938 34.207031 -40.179688 34.5625 -43.046875 C 34.769531 -44.796875 34.523438 -46.421875 33.828125 -47.921875 C 33.128906 -49.421875 32.1875 -50.585938 31 -51.421875 C 29.8125 -52.265625 28.519531 -52.472656 27.125 -52.046875 C 25.59375 -51.628906 24.335938 -50.617188 23.359375 -49.015625 C 22.378906 -47.410156 21.644531 -45.472656 21.15625 -43.203125 C 20.664062 -40.929688 20.421875 -38.570312 20.421875 -36.125 C 20.421875 -33.6875 20.628906 -31.382812 21.046875 -29.21875 C 21.609375 -26.21875 22.566406 -23.25 23.921875 -20.3125 C 25.285156 -17.382812 26.835938 -14.957031 28.578125 -13.03125 C 30.328125 -11.113281 32.007812 -10.15625 33.625 -10.15625 C 34.601562 -10.15625 35.25 -10.78125 35.5625 -12.03125 C 35.875 -13.289062 35.925781 -14.707031 35.71875 -16.28125 C 35.507812 -17.851562 35.085938 -19.09375 34.453125 -20 C 34.035156 -20.695312 33.582031 -21.515625 33.09375 -22.453125 C 32.601562 -23.398438 32.359375 -24.296875 32.359375 -25.140625 C 32.359375 -27.160156 33.492188 -28.46875 35.765625 -29.0625 C 38.035156 -29.65625 40.707031 -29.953125 43.78125 -29.953125 Z M 45.34375 -29.953125 "/></g></g></g><g fill="#292828" fill-opacity="1"><g transform="translate(124.96568, 215.624986)"><g><path d="M 20.53125 -40.953125 C 24.71875 -40.953125 28.050781 -40.390625 30.53125 -39.265625 C 33.007812 -38.148438 34.859375 -36.648438 36.078125 -34.765625 C 37.296875 -32.878906 38.148438 -30.835938 38.640625 -28.640625 C 39.128906 -26.441406 39.476562 -24.222656 39.6875 -21.984375 C 39.90625 -19.753906 40.238281 -17.695312 40.6875 -15.8125 C 41.144531 -13.925781 41.96875 -12.425781 43.15625 -11.3125 C 43.707031 -10.75 44.316406 -10.289062 44.984375 -9.9375 C 45.648438 -9.59375 45.910156 -9.039062 45.765625 -8.28125 C 45.628906 -7.300781 44.789062 -6.441406 43.25 -5.703125 C 41.71875 -4.972656 39.9375 -4.609375 37.90625 -4.609375 C 36.09375 -4.609375 34.414062 -4.957031 32.875 -5.65625 C 31.34375 -6.351562 29.96875 -7.03125 28.75 -7.6875 C 27.53125 -8.351562 26.394531 -8.6875 25.34375 -8.6875 C 24.363281 -8.6875 23.347656 -8.351562 22.296875 -7.6875 C 21.253906 -7.03125 19.984375 -6.351562 18.484375 -5.65625 C 16.984375 -4.957031 15.082031 -4.609375 12.78125 -4.609375 C 9.84375 -4.609375 7.304688 -5.179688 5.171875 -6.328125 C 3.046875 -7.484375 1.546875 -9.019531 0.671875 -10.9375 C -0.191406 -12.863281 -0.207031 -14.976562 0.625 -17.28125 C 1.394531 -19.375 2.773438 -20.875 4.765625 -21.78125 C 6.753906 -22.6875 9.003906 -23.367188 11.515625 -23.828125 C 14.035156 -24.285156 16.410156 -24.863281 18.640625 -25.5625 C 21.015625 -26.320312 22.550781 -27.46875 23.25 -29 C 23.945312 -30.539062 24.085938 -32.078125 23.671875 -33.609375 C 23.253906 -35.148438 22.519531 -36.164062 21.46875 -36.65625 C 20.425781 -37.144531 19.675781 -36.96875 19.21875 -36.125 C 18.757812 -35.289062 18.425781 -34.242188 18.21875 -32.984375 C 18.007812 -31.734375 17.734375 -30.6875 17.390625 -29.84375 C 16.898438 -28.519531 15.9375 -27.59375 14.5 -27.0625 C 13.070312 -26.539062 11.535156 -26.382812 9.890625 -26.59375 C 8.253906 -26.8125 6.84375 -27.335938 5.65625 -28.171875 C 4.46875 -29.015625 3.835938 -30.132812 3.765625 -31.53125 C 3.703125 -32.925781 4.539062 -34.53125 6.28125 -36.34375 C 7.613281 -37.664062 9.460938 -38.765625 11.828125 -39.640625 C 14.203125 -40.515625 17.101562 -40.953125 20.53125 -40.953125 Z M 15.703125 -15.390625 C 15.921875 -13.929688 16.726562 -12.957031 18.125 -12.46875 C 19.519531 -11.976562 20.84375 -11.835938 22.09375 -12.046875 C 22.65625 -12.179688 23.09375 -12.472656 23.40625 -12.921875 C 23.71875 -13.378906 23.910156 -13.75 23.984375 -14.03125 C 24.335938 -15.914062 24.492188 -17.59375 24.453125 -19.0625 C 24.421875 -20.53125 24.300781 -21.71875 24.09375 -22.625 C 24.019531 -23.113281 23.753906 -23.375 23.296875 -23.40625 C 22.847656 -23.4375 22.273438 -23.101562 21.578125 -22.40625 C 20.804688 -21.644531 19.929688 -20.945312 18.953125 -20.3125 C 17.972656 -19.6875 17.148438 -18.988281 16.484375 -18.21875 C 15.828125 -17.457031 15.566406 -16.515625 15.703125 -15.390625 Z M 15.703125 -15.390625 "/></g></g></g><g fill="#292828" fill-opacity="1"><g transform="translate(169.994768, 215.624986)"><g><path d="M 30.484375 -40.953125 C 33.617188 -40.953125 36.128906 -40.09375 38.015625 -38.375 C 39.898438 -36.664062 41.382812 -34.503906 42.46875 -31.890625 C 43.550781 -29.273438 44.421875 -26.535156 45.078125 -23.671875 C 45.742188 -20.804688 46.390625 -18.222656 47.015625 -15.921875 C 47.648438 -13.617188 48.457031 -11.941406 49.4375 -10.890625 C 49.925781 -10.398438 50.414062 -10 50.90625 -9.6875 C 51.394531 -9.375 51.566406 -8.90625 51.421875 -8.28125 C 51.285156 -7.226562 50.625 -6.4375 49.4375 -5.90625 C 48.25 -5.382812 46.867188 -5.035156 45.296875 -4.859375 C 43.722656 -4.691406 42.238281 -4.609375 40.84375 -4.609375 C 39.519531 -4.609375 37.96875 -4.867188 36.1875 -5.390625 C 34.40625 -5.910156 32.847656 -6.90625 31.515625 -8.375 C 30.191406 -9.84375 29.53125 -12.007812 29.53125 -14.875 L 29.53125 -29.328125 C 29.53125 -31.910156 29.21875 -33.601562 28.59375 -34.40625 C 27.96875 -35.207031 27.179688 -35.363281 26.234375 -34.875 C 25.296875 -34.382812 24.351562 -33.441406 23.40625 -32.046875 C 22.46875 -30.648438 21.679688 -29.046875 21.046875 -27.234375 C 20.421875 -25.421875 20.109375 -23.640625 20.109375 -21.890625 C 20.109375 -19.585938 20.300781 -17.441406 20.6875 -15.453125 C 21.070312 -13.460938 21.753906 -11.941406 22.734375 -10.890625 C 23.210938 -10.398438 23.695312 -10 24.1875 -9.6875 C 24.675781 -9.375 24.851562 -8.90625 24.71875 -8.28125 C 24.582031 -7.226562 23.757812 -6.4375 22.25 -5.90625 C 20.75 -5.382812 19.039062 -5.035156 17.125 -4.859375 C 15.207031 -4.691406 13.550781 -4.609375 12.15625 -4.609375 C 10.820312 -4.609375 9.210938 -4.691406 7.328125 -4.859375 C 5.441406 -5.035156 3.78125 -5.382812 2.34375 -5.90625 C 0.914062 -6.4375 0.132812 -7.226562 0 -8.28125 C -0.0703125 -8.976562 0.0976562 -9.5 0.515625 -9.84375 C 0.941406 -10.195312 1.398438 -10.617188 1.890625 -11.109375 C 2.441406 -11.585938 2.875 -12.507812 3.1875 -13.875 C 3.507812 -15.238281 3.703125 -16.757812 3.765625 -18.4375 C 3.835938 -20.113281 3.75 -21.679688 3.5 -23.140625 C 3.257812 -24.609375 2.859375 -25.691406 2.296875 -26.390625 C 1.816406 -27.085938 1.296875 -27.695312 0.734375 -28.21875 C 0.171875 -28.75 -0.0703125 -29.394531 0 -30.15625 C 0.132812 -31.207031 0.742188 -32.171875 1.828125 -33.046875 C 2.910156 -33.921875 4.164062 -34.707031 5.59375 -35.40625 C 7.03125 -36.101562 8.34375 -36.765625 9.53125 -37.390625 C 10.4375 -37.804688 11.640625 -38.363281 13.140625 -39.0625 C 14.640625 -39.757812 16.101562 -40.300781 17.53125 -40.6875 C 18.96875 -41.070312 20.101562 -41.070312 20.9375 -40.6875 C 21.78125 -40.300781 21.992188 -39.269531 21.578125 -37.59375 L 21.046875 -34.453125 C 22.304688 -36.691406 23.84375 -38.332031 25.65625 -39.375 C 27.476562 -40.425781 29.085938 -40.953125 30.484375 -40.953125 Z M 30.484375 -40.953125 "/></g></g></g><g fill="#292828" fill-opacity="1"><g transform="translate(222.354162, 215.624986)"><g><path d="M 20.53125 -40.953125 C 24.71875 -40.953125 28.050781 -40.390625 30.53125 -39.265625 C 33.007812 -38.148438 34.859375 -36.648438 36.078125 -34.765625 C 37.296875 -32.878906 38.148438 -30.835938 38.640625 -28.640625 C 39.128906 -26.441406 39.476562 -24.222656 39.6875 -21.984375 C 39.90625 -19.753906 40.238281 -17.695312 40.6875 -15.8125 C 41.144531 -13.925781 41.96875 -12.425781 43.15625 -11.3125 C 43.707031 -10.75 44.316406 -10.289062 44.984375 -9.9375 C 45.648438 -9.59375 45.910156 -9.039062 45.765625 -8.28125 C 45.628906 -7.300781 44.789062 -6.441406 43.25 -5.703125 C 41.71875 -4.972656 39.9375 -4.609375 37.90625 -4.609375 C 36.09375 -4.609375 34.414062 -4.957031 32.875 -5.65625 C 31.34375 -6.351562 29.96875 -7.03125 28.75 -7.6875 C 27.53125 -8.351562 26.394531 -8.6875 25.34375 -8.6875 C 24.363281 -8.6875 23.347656 -8.351562 22.296875 -7.6875 C 21.253906 -7.03125 19.984375 -6.351562 18.484375 -5.65625 C 16.984375 -4.957031 15.082031 -4.609375 12.78125 -4.609375 C 9.84375 -4.609375 7.304688 -5.179688 5.171875 -6.328125 C 3.046875 -7.484375 1.546875 -9.019531 0.671875 -10.9375 C -0.191406 -12.863281 -0.207031 -14.976562 0.625 -17.28125 C 1.394531 -19.375 2.773438 -20.875 4.765625 -21.78125 C 6.753906 -22.6875 9.003906 -23.367188 11.515625 -23.828125 C 14.035156 -24.285156 16.410156 -24.863281 18.640625 -25.5625 C 21.015625 -26.320312 22.550781 -27.46875 23.25 -29 C 23.945312 -30.539062 24.085938 -32.078125 23.671875 -33.609375 C 23.253906 -35.148438 22.519531 -36.164062 21.46875 -36.65625 C 20.425781 -37.144531 19.675781 -36.96875 19.21875 -36.125 C 18.757812 -35.289062 18.425781 -34.242188 18.21875 -32.984375 C 18.007812 -31.734375 17.734375 -30.6875 17.390625 -29.84375 C 16.898438 -28.519531 15.9375 -27.59375 14.5 -27.0625 C 13.070312 -26.539062 11.535156 -26.382812 9.890625 -26.59375 C 8.253906 -26.8125 6.84375 -27.335938 5.65625 -28.171875 C 4.46875 -29.015625 3.835938 -30.132812 3.765625 -31.53125 C 3.703125 -32.925781 4.539062 -34.53125 6.28125 -36.34375 C 7.613281 -37.664062 9.460938 -38.765625 11.828125 -39.640625 C 14.203125 -40.515625 17.101562 -40.953125 20.53125 -40.953125 Z M 15.703125 -15.390625 C 15.921875 -13.929688 16.726562 -12.957031 18.125 -12.46875 C 19.519531 -11.976562 20.84375 -11.835938 22.09375 -12.046875 C 22.65625 -12.179688 23.09375 -12.472656 23.40625 -12.921875 C 23.71875 -13.378906 23.910156 -13.75 23.984375 -14.03125 C 24.335938 -15.914062 24.492188 -17.59375 24.453125 -19.0625 C 24.421875 -20.53125 24.300781 -21.71875 24.09375 -22.625 C 24.019531 -23.113281 23.753906 -23.375 23.296875 -23.40625 C 22.847656 -23.4375 22.273438 -23.101562 21.578125 -22.40625 C 20.804688 -21.644531 19.929688 -20.945312 18.953125 -20.3125 C 17.972656 -19.6875 17.148438 -18.988281 16.484375 -18.21875 C 15.828125 -17.457031 15.566406 -16.515625 15.703125 -15.390625 Z M 15.703125 -15.390625 "/></g></g></g><g fill="#292828" fill-opacity="1"><g transform="translate(267.38325, 215.624986)"><g><path d="M 37.078125 -34.03125 C 37.847656 -32.5 37.8125 -31.242188 36.96875 -30.265625 C 36.132812 -29.285156 34.894531 -28.601562 33.25 -28.21875 C 31.613281 -27.84375 29.90625 -27.789062 28.125 -28.0625 C 26.34375 -28.34375 24.875 -28.953125 23.71875 -29.890625 C 22.570312 -30.835938 22.101562 -32.1875 22.3125 -33.9375 C 22.59375 -35.75 22.296875 -36.953125 21.421875 -37.546875 C 20.546875 -38.140625 19.601562 -38.257812 18.59375 -37.90625 C 17.582031 -37.5625 16.9375 -36.832031 16.65625 -35.71875 C 16.238281 -34.039062 16.617188 -32.554688 17.796875 -31.265625 C 18.984375 -29.972656 20.570312 -28.765625 22.5625 -27.640625 C 24.5625 -26.523438 26.609375 -25.410156 28.703125 -24.296875 C 30.796875 -23.179688 32.644531 -21.957031 34.25 -20.625 C 35.851562 -19.300781 36.796875 -17.734375 37.078125 -15.921875 C 37.421875 -14.109375 36.789062 -12.328125 35.1875 -10.578125 C 33.582031 -8.828125 31.363281 -7.394531 28.53125 -6.28125 C 25.707031 -5.164062 22.585938 -4.609375 19.171875 -4.609375 L 18.953125 -4.609375 C 16.515625 -4.609375 14.019531 -4.851562 11.46875 -5.34375 C 8.914062 -5.832031 6.660156 -6.582031 4.703125 -7.59375 C 2.753906 -8.601562 1.363281 -9.910156 0.53125 -11.515625 C -0.238281 -13.054688 -0.207031 -14.3125 0.625 -15.28125 C 1.46875 -16.257812 2.707031 -16.941406 4.34375 -17.328125 C 5.988281 -17.710938 7.703125 -17.765625 9.484375 -17.484375 C 11.265625 -17.210938 12.726562 -16.601562 13.875 -15.65625 C 15.03125 -14.71875 15.503906 -13.375 15.296875 -11.625 C 15.085938 -9.8125 15.382812 -8.609375 16.1875 -8.015625 C 16.988281 -7.421875 17.894531 -7.316406 18.90625 -7.703125 C 19.914062 -8.085938 20.597656 -8.800781 20.953125 -9.84375 C 21.441406 -11.519531 21.109375 -12.953125 19.953125 -14.140625 C 18.796875 -15.328125 17.207031 -16.410156 15.1875 -17.390625 C 13.164062 -18.367188 11.070312 -19.394531 8.90625 -20.46875 C 6.738281 -21.550781 4.851562 -22.789062 3.25 -24.1875 C 1.644531 -25.582031 0.738281 -27.257812 0.53125 -29.21875 C 0.25 -31.664062 0.890625 -33.757812 2.453125 -35.5 C 4.023438 -37.25 6.222656 -38.59375 9.046875 -39.53125 C 11.878906 -40.476562 15.007812 -40.953125 18.4375 -40.953125 L 18.640625 -40.953125 C 21.085938 -40.953125 23.582031 -40.707031 26.125 -40.21875 C 28.675781 -39.726562 30.945312 -38.976562 32.9375 -37.96875 C 34.925781 -36.957031 36.304688 -35.644531 37.078125 -34.03125 Z M 37.078125 -34.03125 "/></g></g></g></svg>