<?xml version="1.0" encoding="UTF-8"?>
<!DOCTYPE svg PUBLIC "-//W3C//DTD SVG 1.1//EN" "http://www.w3.org/Graphics/SVG/1.1/DTD/svg11.dtd">
<svg xmlns="http://www.w3.org/2000/svg" version="1.1" width="512px" height="512px" style="shape-rendering:geometricPrecision; text-rendering:geometricPrecision; image-rendering:optimizeQuality; fill-rule:evenodd; clip-rule:evenodd" xmlns:xlink="http://www.w3.org/1999/xlink">
<g><path style="opacity:0.963" fill="#f1a918" d="M 230.5,-0.5 C 238.833,-0.5 247.167,-0.5 255.5,-0.5C 299.021,9.19628 322.355,36.3629 325.5,81C 325.254,87.5522 324.587,94.0522 323.5,100.5C 320.715,108.071 317.381,115.405 313.5,122.5C 308.079,121.81 302.746,120.81 297.5,119.5C 316.801,86.512 312.801,56.6786 285.5,30C 264.616,14.6287 241.949,11.2954 217.5,20C 186.063,35.4762 172.896,60.6429 178,95.5C 181.066,106.966 186.233,117.299 193.5,126.5C 188.406,127.88 183.406,129.547 178.5,131.5C 176.823,129.46 175.156,127.46 173.5,125.5C 171.147,120.795 168.814,116.128 166.5,111.5C 153.439,71.5251 163.439,38.6918 196.5,13C 207.044,6.21398 218.377,1.71398 230.5,-0.5 Z"/></g>
<g><path style="opacity:1" fill="#fee160" d="M 297.5,119.5 C 284.933,117.482 272.266,116.482 259.5,116.5C 264.022,114.168 268.189,111.168 272,107.5C 275.469,110.916 279.136,111.25 283,108.5C 283.667,106.5 283.667,104.5 283,102.5C 281.22,100.707 279.387,99.0404 277.5,97.5C 282.353,82.3716 277.353,71.8716 262.5,66C 254.604,64.9325 247.437,66.7658 241,71.5C 236.001,67.9941 231.167,64.3274 226.5,60.5C 229.128,58.5116 231.795,56.5116 234.5,54.5C 236.043,45.2211 232.376,42.3878 223.5,46C 220.656,48.1808 217.822,50.3475 215,52.5C 211.852,49.3226 208.519,48.9893 205,51.5C 203.699,53.3646 203.365,55.3646 204,57.5C 205.684,59.3513 207.517,61.018 209.5,62.5C 203.174,76.6851 207.174,86.8518 221.5,93C 224.833,93.6667 228.167,93.6667 231.5,93C 235.386,90.8901 239.386,89.0567 243.5,87.5C 249.653,90.7491 255.32,94.7491 260.5,99.5C 259.5,100.333 258.5,101.167 257.5,102C 253.38,102.819 249.546,104.319 246,106.5C 245.024,110.327 245.857,113.66 248.5,116.5C 229.688,117.329 211.355,120.663 193.5,126.5C 186.233,117.299 181.066,106.966 178,95.5C 172.896,60.6429 186.063,35.4762 217.5,20C 241.949,11.2954 264.616,14.6287 285.5,30C 312.801,56.6786 316.801,86.512 297.5,119.5 Z"/></g>
<g><path style="opacity:1" fill="#f2a919" d="M 259.5,116.5 C 255.833,116.5 252.167,116.5 248.5,116.5C 245.857,113.66 245.024,110.327 246,106.5C 249.546,104.319 253.38,102.819 257.5,102C 258.5,101.167 259.5,100.333 260.5,99.5C 255.32,94.7491 249.653,90.7491 243.5,87.5C 239.386,89.0567 235.386,90.8901 231.5,93C 228.167,93.6667 224.833,93.6667 221.5,93C 207.174,86.8518 203.174,76.6851 209.5,62.5C 207.517,61.018 205.684,59.3513 204,57.5C 203.365,55.3646 203.699,53.3646 205,51.5C 208.519,48.9893 211.852,49.3226 215,52.5C 217.822,50.3475 220.656,48.1808 223.5,46C 232.376,42.3878 236.043,45.2211 234.5,54.5C 231.795,56.5116 229.128,58.5116 226.5,60.5C 231.167,64.3274 236.001,67.9941 241,71.5C 247.437,66.7658 254.604,64.9325 262.5,66C 277.353,71.8716 282.353,82.3716 277.5,97.5C 279.387,99.0404 281.22,100.707 283,102.5C 283.667,104.5 283.667,106.5 283,108.5C 279.136,111.25 275.469,110.916 272,107.5C 268.189,111.168 264.022,114.168 259.5,116.5 Z"/></g>
<g><path style="opacity:1" fill="#fedd5b" d="M 219.5,70.5 C 223.399,72.3856 227.066,74.7189 230.5,77.5C 226.328,80.4991 222.828,79.8325 220,75.5C 219.506,73.8659 219.34,72.1992 219.5,70.5 Z"/></g>
<g><path style="opacity:1" fill="#fedd5b" d="M 254.5,79.5 C 259.55,79.2742 263.383,81.2742 266,85.5C 266.667,86.8333 266.667,88.1667 266,89.5C 261.311,86.9664 257.478,83.633 254.5,79.5 Z"/></g>
<g><path style="opacity:1" fill="#cc0c4b" d="M 451.5,93.5 C 419.862,113.756 399.195,142.09 389.5,178.5C 380.202,172.701 371.536,166.201 363.5,159C 368.627,147.238 374.627,136.071 381.5,125.5C 394.389,107.548 411.722,96.3818 433.5,92C 439.944,91.0852 446.277,91.4185 452.5,93C 452.272,93.3988 451.938,93.5654 451.5,93.5 Z"/></g>
<g><path style="opacity:0.998" fill="#e94354" d="M 451.5,93.5 C 445.975,117.934 439.975,142.267 433.5,166.5C 440.494,176.338 447.327,186.338 454,196.5C 459.301,205.436 463.801,214.77 467.5,224.5C 478.151,225.332 488.818,225.832 499.5,226C 504.206,227.105 507.373,229.938 509,234.5C 509.5,269.832 509.667,305.165 509.5,340.5C 495.163,340.333 480.829,340.5 466.5,341C 462.835,351.322 459.168,361.655 455.5,372C 455.728,372.399 456.062,372.565 456.5,372.5C 447.756,387.754 437.256,401.754 425,414.5C 424.667,440.167 424.333,465.833 424,491.5C 420.649,501.35 414.149,508.017 404.5,511.5C 396.167,511.5 387.833,511.5 379.5,511.5C 369.083,507.581 362.25,500.247 359,489.5C 358.667,473.833 358.333,458.167 358,442.5C 334.158,452.953 309.325,456.119 283.5,452C 222.79,438.896 179.624,404.063 154,347.5C 139.343,311.591 133.676,274.257 137,235.5C 137.167,214.834 139.833,194.501 145,174.5C 147.449,165.617 150.949,157.283 155.5,149.5C 157.477,153.97 160.81,155.47 165.5,154C 217.387,128.39 270.887,124.556 326,142.5C 332.901,141.25 335.234,137.25 333,130.5C 332.167,129.667 331.333,128.833 330.5,128C 324.667,126.3 319,124.467 313.5,122.5C 317.381,115.405 320.715,108.071 323.5,100.5C 343.806,106.494 363.139,114.827 381.5,125.5C 374.627,136.071 368.627,147.238 363.5,159C 371.536,166.201 380.202,172.701 389.5,178.5C 399.195,142.09 419.862,113.756 451.5,93.5 Z"/></g>
<g><path style="opacity:0.997" fill="#cc0b4b" d="M 166.5,111.5 C 168.814,116.128 171.147,120.795 173.5,125.5C 169.123,129.268 165.456,133.601 162.5,138.5C 157.288,140.371 154.955,144.038 155.5,149.5C 150.949,157.283 147.449,165.617 145,174.5C 139.833,194.501 137.167,214.834 137,235.5C 133.676,274.257 139.343,311.591 154,347.5C 179.624,404.063 222.79,438.896 283.5,452C 309.325,456.119 334.158,452.953 358,442.5C 358.333,458.167 358.667,473.833 359,489.5C 362.25,500.247 369.083,507.581 379.5,511.5C 371.167,511.5 362.833,511.5 354.5,511.5C 344.423,507.92 337.923,500.92 335,490.5C 334.831,483.476 334.331,476.476 333.5,469.5C 284.608,483.815 235.608,484.148 186.5,470.5C 162.704,463.603 140.704,452.936 120.5,438.5C 120.167,446.5 119.833,454.5 119.5,462.5C 119.389,471.89 119.889,481.224 121,490.5C 123.99,501.322 130.823,508.322 141.5,511.5C 133.167,511.5 124.833,511.5 116.5,511.5C 105.231,507.39 98.3972,499.39 96,487.5C 95.6667,463.5 95.3333,439.5 95,415.5C 62.0979,382.351 43.7646,342.351 40,295.5C 22.0426,303.75 15.7092,317.416 21,336.5C 24,340.833 27,345.167 30,349.5C 30.9996,358.164 27.1662,361.664 18.5,360C 3.21246,345.784 -1.28754,328.617 5,308.5C 11.4678,292.361 23.1345,282.361 40,278.5C 44.1651,226.003 65.9985,182.503 105.5,148C 123.69,132.322 144.023,120.155 166.5,111.5 Z"/></g>
<g><path style="opacity:1" fill="#31363f" d="M 248.5,116.5 C 252.167,116.5 255.833,116.5 259.5,116.5C 272.266,116.482 284.933,117.482 297.5,119.5C 302.746,120.81 308.079,121.81 313.5,122.5C 319,124.467 324.667,126.3 330.5,128C 331.333,128.833 332.167,129.667 333,130.5C 335.234,137.25 332.901,141.25 326,142.5C 270.887,124.556 217.387,128.39 165.5,154C 160.81,155.47 157.477,153.97 155.5,149.5C 154.955,144.038 157.288,140.371 162.5,138.5C 167.838,136.164 173.171,133.831 178.5,131.5C 183.406,129.547 188.406,127.88 193.5,126.5C 211.355,120.663 229.688,117.329 248.5,116.5 Z"/></g>
<g><path style="opacity:1" fill="#e44353" d="M 173.5,125.5 C 175.156,127.46 176.823,129.46 178.5,131.5C 173.171,133.831 167.838,136.164 162.5,138.5C 165.456,133.601 169.123,129.268 173.5,125.5 Z"/></g>
<g><path style="opacity:1" fill="#33353f" d="M 436.5,242.5 C 450.314,242.146 456.814,248.813 456,262.5C 451.023,273.789 442.856,276.956 431.5,272C 422.674,263.595 422.341,254.928 430.5,246C 432.432,244.541 434.432,243.375 436.5,242.5 Z"/></g>
<g><path style="opacity:1" fill="#cc0d4b" d="M 509.5,340.5 C 509.666,348.174 509.5,355.841 509,363.5C 507.969,366.539 506.135,369.039 503.5,371C 487.929,372.469 472.263,372.969 456.5,372.5C 456.062,372.565 455.728,372.399 455.5,372C 459.168,361.655 462.835,351.322 466.5,341C 480.829,340.5 495.163,340.333 509.5,340.5 Z"/></g>
<g><path style="opacity:0.99" fill="#e94354" d="M 186.5,470.5 C 190.213,490.082 183.213,503.748 165.5,511.5C 157.5,511.5 149.5,511.5 141.5,511.5C 130.823,508.322 123.99,501.322 121,490.5C 119.889,481.224 119.389,471.89 119.5,462.5C 119.833,454.5 120.167,446.5 120.5,438.5C 140.704,452.936 162.704,463.603 186.5,470.5 Z"/></g>
</svg>
